<?xml version="1.0" encoding="utf-8"?>
<svg version="1.1" id="Layer_1" xmlns="http://www.w3.org/2000/svg" xmlns:xlink="http://www.w3.org/1999/xlink" x="0px" y="0px"
	 viewBox="0 0 400 400" preserveAspectRatio="none" width="100%" height="100%">
<g transform="translate(0.000000,1280.000000) scale(0.100000,-0.100000)">
	<path d="M2054.4,8815.4c86-21,78.6-21.7,105.8,6.2c13.6,13.6,49.5,38.4,80.4,54.4c30.9,16.7,56.3,33.4,56.3,37.1
		c0,6.8-10.5,21-73,98.4c-63.7,78.6-88.5,118.2-82.9,132.4c2.5,7.4,24.1,22.3,53.8,37.1c147.9,72.4,314.3,235.7,524.6,515.9
		c170.1,225.8,332.8,484.4,446,709.6c97.1,193.6,166.4,376.1,193,507.3c27.8,139.8,35.3,212.8,35.3,343.3
		c-1.2,321.1-45.2,527.1-162.7,761.5c-84.1,166.4-169.5,284-297.6,407.7c-207.2,199.8-466.4,330.3-726.9,365
		c-73,9.9-334.7,11.8-402.1,3.1c-168.3-22.3-407.1-121.3-564.8-234.5c-369.3-265.4-597.6-694.7-631-1189.6
		c-12.4-180.6,22.3-412.6,92.8-624.8c102.7-305.6,311.2-671.2,608.1-1065.9c181.9-242.5,412.6-457.8,545.6-509.8
		c52-21,55.1-30.3,24.7-84.1c-13-23.5-44.5-74.9-69.3-113.8c-25.4-39-45.8-76.1-45.8-82.9c0-10.5,3.1-11.8,23.5-8
		c16.1,2.5,27.8,0.6,35.9-5.6c6.2-4.9,21-9.3,32.2-9.3s51.7-27.2,58.5-30.9S2054.4,8815.4,2054.4,8815.4z"/>
</g>
</svg>
