<?xml version="1.0" encoding="utf-8"?>
<svg version="1.1" id="cssda_logo" xmlns="http://www.w3.org/2000/svg" xmlns:xlink="http://www.w3.org/1999/xlink" x="0px" y="0px"
	 viewBox="0 0 120 120" style="enable-background:new 0 0 120 120;" xml:space="preserve">
<style type="text/css">
	.st0{fill:none;stroke:#ffffff;stroke-miterlimit:10;}
</style>
<g style="fill:#fff">
	<ellipse class="st0" cx="60" cy="60" rx="59.5" ry="59.7"/>
	<path d="M43.6,58.1c0.3,0,0.5,0,0.7,0.1c0.2,0.1,0.5,0.2,0.7,0.3l0.5-1.3c-0.6-0.3-1.2-0.4-1.9-0.4c-0.6,0-1.1,0.1-1.6,0.4
		c-0.5,0.3-0.8,0.6-1,1.1c-0.2,0.5-0.4,1-0.4,1.7c0,1,0.2,1.8,0.7,2.4c0.5,0.5,1.2,0.8,2.1,0.8c0.7,0,1.2-0.1,1.7-0.3v-1.4
		c-0.3,0.1-0.5,0.2-0.8,0.3c-0.3,0.1-0.5,0.1-0.8,0.1c-0.9,0-1.4-0.6-1.4-1.8c0-0.6,0.1-1,0.3-1.3C42.9,58.3,43.2,58.1,43.6,58.1z"
		/>
	<path d="M51,61.7c-0.3,0-0.6,0-0.9-0.1c-0.3-0.1-0.7-0.2-1-0.4v1.5c0.3,0.1,0.6,0.2,0.9,0.3c0.3,0.1,0.6,0.1,1,0.1
		c0.5,0,0.9-0.1,1.3-0.2c0.4-0.2,0.6-0.4,0.8-0.7c0.2-0.3,0.3-0.6,0.3-1c0-0.4-0.1-0.8-0.3-1c-0.2-0.3-0.6-0.5-1.1-0.8
		c-0.6-0.3-0.9-0.4-1-0.5c-0.1-0.1-0.2-0.2-0.2-0.3c0-0.1,0-0.2,0.1-0.3c0.1-0.1,0.3-0.1,0.5-0.1c0.4,0,0.9,0.1,1.5,0.4l0.5-1.3
		c-0.7-0.3-1.3-0.4-2-0.4c-0.7,0-1.3,0.2-1.7,0.5c-0.4,0.3-0.6,0.8-0.6,1.3c0,0.3,0,0.6,0.1,0.8c0.1,0.2,0.2,0.4,0.4,0.6
		c0.2,0.2,0.5,0.4,0.9,0.5c0.4,0.2,0.7,0.3,0.8,0.4c0.1,0.1,0.2,0.1,0.2,0.2c0,0.1,0.1,0.1,0.1,0.2c0,0.1-0.1,0.2-0.2,0.3
		C51.4,61.7,51.2,61.7,51,61.7z"/>
	<path d="M58.8,61.7c-0.3,0-0.6,0-0.9-0.1c-0.3-0.1-0.7-0.2-1-0.4v1.5c0.3,0.1,0.6,0.2,0.9,0.3c0.3,0.1,0.6,0.1,1,0.1
		c0.5,0,0.9-0.1,1.3-0.2c0.4-0.2,0.6-0.4,0.8-0.7c0.2-0.3,0.3-0.6,0.3-1c0-0.4-0.1-0.8-0.3-1c-0.2-0.3-0.6-0.5-1.1-0.8
		c-0.6-0.3-0.9-0.4-1-0.5c-0.1-0.1-0.2-0.2-0.2-0.3c0-0.1,0-0.2,0.1-0.3c0.1-0.1,0.3-0.1,0.5-0.1c0.4,0,0.9,0.1,1.5,0.4l0.5-1.3
		c-0.7-0.3-1.3-0.4-2-0.4c-0.7,0-1.3,0.2-1.7,0.5c-0.4,0.3-0.6,0.8-0.6,1.3c0,0.3,0,0.6,0.1,0.8c0.1,0.2,0.2,0.4,0.4,0.6
		c0.2,0.2,0.5,0.4,0.9,0.5c0.4,0.2,0.7,0.3,0.8,0.4c0.1,0.1,0.2,0.1,0.2,0.2c0,0.1,0.1,0.1,0.1,0.2c0,0.1-0.1,0.2-0.2,0.3
		C59.3,61.7,59.1,61.7,58.8,61.7z"/>
	<path d="M70.3,59.8c0-1-0.3-1.7-0.8-2.2c-0.5-0.5-1.3-0.8-2.3-0.8h-2.1V63h2c1,0,1.8-0.3,2.4-0.8C70,61.6,70.3,60.8,70.3,59.8z
		 M68.2,61.2c-0.2,0.3-0.6,0.4-1.1,0.4h-0.4v-3.5h0.5c0.5,0,0.8,0.1,1,0.4c0.2,0.3,0.3,0.7,0.3,1.3C68.6,60.4,68.5,60.9,68.2,61.2z"
		/>
	<path d="M77.8,61.8l0.3,1.2h1.8l-2-6.2h-2.2l-2,6.2h1.8l0.3-1.2H77.8z M76.6,58.5c0.1-0.3,0.1-0.6,0.1-0.7c0,0.2,0.1,0.4,0.2,0.8
		c0.1,0.4,0.2,0.7,0.2,0.9l0.3,1h-1.3C76.4,59.5,76.6,58.8,76.6,58.5z"/>
	<polygon points="68.3,52.3 61.9,46 55.6,52.3 52,52.3 65.3,39 51.4,39 38,52.3 33,52.3 33,53.2 87.6,53.2 87.6,52.3 	"/>
	<polygon points="33,67.5 52.2,67.5 58.4,73.7 64.7,67.5 68.1,67.5 54.9,80.6 68.9,80.6 75.8,73.7 82.1,67.5 87.6,67.5 87.6,66.5
		33,66.5 	"/>
	<g>
		<path d="M20.8,56.6l0,1.7l-3.7,0.9c-0.1,0-0.4,0.1-0.8,0.2c-0.4,0.1-0.7,0.1-0.8,0.1c0.2,0,0.4,0.1,0.8,0.2
			c0.4,0.1,0.6,0.1,0.8,0.2l3.6,1l0,1.7l-7,1.7l0-1.4l3.8-0.8c0.7-0.1,1.3-0.2,1.8-0.3c-0.2,0-0.5-0.1-0.8-0.1
			c-0.4-0.1-0.7-0.1-0.9-0.2l-3.9-1.1l0-1.4l3.9-0.9c0.2,0,0.4-0.1,0.8-0.2s0.7-0.1,0.9-0.1c-0.2,0-0.6-0.1-0.9-0.2
			c-0.4-0.1-0.7-0.1-0.9-0.2l-3.8-0.9l0-1.4L20.8,56.6z"/>
		<path d="M22.4,48.5l-1,3.9l-6.7-1.7l1-3.9l1.2,0.3l-0.6,2.4l1.5,0.4l0.6-2.3l1.2,0.3l-0.6,2.3l1.7,0.4l0.6-2.4L22.4,48.5z"/>
		<path d="M17.2,42.7l0.9-2c0.4-0.9,0.8-1.5,1.3-1.8c0.4-0.3,0.9-0.3,1.5,0c0.4,0.2,0.6,0.4,0.8,0.7c0.2,0.3,0.2,0.6,0.1,0.9l0,0
			c0.3-0.4,0.6-0.6,0.9-0.6c0.3-0.1,0.7,0,1.1,0.2c0.6,0.3,0.9,0.7,1.1,1.2s0,1.2-0.3,1.9l-1.1,2.3L17.2,42.7z M20.3,42.5l0.4-0.8
			c0.2-0.4,0.2-0.6,0.2-0.9c0-0.2-0.2-0.4-0.4-0.5c-0.2-0.1-0.5-0.1-0.6,0c-0.2,0.1-0.4,0.4-0.5,0.8l-0.3,0.7L20.3,42.5z M21.3,43
			l1.6,0.8l0.4-0.9c0.2-0.4,0.2-0.7,0.2-0.9c-0.1-0.2-0.2-0.4-0.5-0.6c-0.5-0.2-1,0-1.3,0.7L21.3,43z"/>
		<path d="M28.1,34c0.5,0.4,0.8,0.8,0.8,1.4s-0.2,1.2-0.7,1.8c-0.4,0.6-0.9,1-1.5,1.3l-1.1-0.8c0.4-0.3,0.8-0.5,1.1-0.7
			c0.3-0.2,0.5-0.4,0.6-0.6c0.2-0.3,0.3-0.5,0.3-0.7s-0.1-0.4-0.3-0.5C27.2,35.1,27.1,35,27,35c-0.1,0-0.3,0-0.4,0.1
			s-0.5,0.2-0.9,0.4c-0.4,0.2-0.8,0.4-1,0.4c-0.3,0.1-0.5,0.1-0.8,0c-0.3,0-0.5-0.2-0.8-0.4c-0.5-0.4-0.8-0.8-0.8-1.4
			c0-0.5,0.2-1.1,0.6-1.7c0.2-0.3,0.5-0.5,0.7-0.8s0.6-0.4,0.9-0.6l0.6,1.1c-0.3,0.2-0.6,0.4-0.8,0.6s-0.4,0.3-0.5,0.5
			c-0.2,0.2-0.2,0.4-0.2,0.6c0,0.2,0.1,0.4,0.3,0.5c0.1,0.1,0.2,0.1,0.3,0.1s0.2,0,0.4-0.1c0.2-0.1,0.5-0.2,0.9-0.5
			c0.6-0.3,1.1-0.5,1.5-0.5C27.4,33.6,27.7,33.7,28.1,34z"/>
		<path d="M31.7,32.9L26.8,28l1-1l4.9,4.9L31.7,32.9z"/>
		<path d="M37.4,28l-1.2,0.9l-3.4-4.6l-1.5,1.1l-0.7-1l4.2-3.1l0.7,1L34,23.4L37.4,28z"/>
		<path d="M44.9,23.8l-3.6,1.7l-3-6.3l3.6-1.7l0.5,1.1l-2.3,1.1l0.7,1.4l2.1-1l0.5,1.1l-2.1,1l0.8,1.6l2.3-1.1L44.9,23.8z"/>
		<path d="M58.7,17.4c0.1,1.1-0.1,2.1-0.6,2.7s-1.3,1.1-2.3,1.2c-1.1,0.1-1.9-0.1-2.5-0.7s-1-1.4-1.1-2.6s0.1-2.1,0.6-2.7
			s1.3-1,2.3-1.2c1.1-0.1,1.9,0.1,2.5,0.7S58.6,16.2,58.7,17.4z M53.7,17.9c0.1,0.8,0.3,1.3,0.6,1.7c0.3,0.4,0.8,0.5,1.4,0.5
			c1.2-0.1,1.7-1,1.5-2.5c-0.2-1.6-0.8-2.3-2-2.2c-0.6,0.1-1,0.3-1.3,0.7S53.6,17.1,53.7,17.9z"/>
		<path d="M63.6,21.1L62.2,21l0.7-6.9l3.9,0.4l-0.1,1.2l-2.5-0.3L64,17.2l2.3,0.2l-0.1,1.2l-2.3-0.2L63.6,21.1z"/>
		<path d="M76.5,24.7l-1.3-0.6l2.4-5.2l-1.7-0.8l0.5-1.1l4.8,2.2l-0.5,1.1l-1.7-0.8L76.5,24.7z"/>
		<path d="M85.1,30.2l-1.2-0.9l1.8-2.4l-2.2-1.6l-1.8,2.4l-1.2-0.9l4.1-5.6l1.2,0.9l-1.6,2.2l2.2,1.6l1.6-2.2l1.2,0.9L85.1,30.2z"/>
		<path d="M90.2,35.5l-2.7-3l5.2-4.6l2.7,3l-0.9,0.8l-1.7-1.9l-1.1,1l1.6,1.7l-0.9,0.8l-1.6-1.7l-1.3,1.2l1.7,1.9L90.2,35.5z"/>
		<path d="M100.2,46.4c-1.1,0.4-2,0.5-2.8,0.1c-0.8-0.4-1.5-1.1-1.9-2.2l-0.8-1.8l6.4-2.7l0.8,2c0.4,1,0.5,2,0.2,2.8
			C101.8,45.4,101.2,46,100.2,46.4z M99.5,45c1.4-0.6,1.8-1.5,1.3-2.7l-0.3-0.7l-4.2,1.7l0.2,0.6C97.2,45.2,98.1,45.6,99.5,45z"/>
		<path d="M98.4,54.9l1.5-0.8l-0.4-2.5l-1.7-0.2l-0.3-1.6l7.3,1.2l0.3,1.8l-6.4,3.6L98.4,54.9z M101.1,53.5c1.4-0.7,2.2-1.1,2.4-1.2
			c0.2-0.1,0.3-0.2,0.4-0.2c-0.4,0-1.5-0.1-3.1-0.4L101.1,53.5z"/>
		<path d="M102.8,61.2l2.8,1.5l0,1.6l-4.2-2.4l-2.7-0.1l0-1.5l2.7,0.1l4.3-2.2l0,1.6L102.8,61.2z"/>
	</g>
	<g>
		<path d="M31.5,95.9l0.8-1.7l-2-1.8l-1.6,1l-1.3-1.1l7-3.9l1.4,1.3L32.8,97L31.5,95.9z M32.9,92.9c0.7-1.5,1.1-2.4,1.2-2.6
			c0.1-0.2,0.2-0.4,0.2-0.5c-0.4,0.3-1.3,0.8-2.9,1.8L32.9,92.9z"/>
		<path d="M42.8,102.7l-1.6-0.8l0.8-4c0-0.1,0.1-0.4,0.2-0.9c0.1-0.4,0.2-0.7,0.3-0.9c-0.1,0.2-0.3,0.4-0.5,0.7
			c-0.3,0.3-0.4,0.6-0.6,0.7l-2.7,3.1l-1.6-0.8l1.6-7.6l1.4,0.7l-1,4.1c-0.2,0.8-0.4,1.4-0.6,1.9c0.1-0.2,0.3-0.4,0.5-0.7
			c0.2-0.3,0.5-0.6,0.6-0.8l2.9-3.3l1.3,0.7l-0.9,4.3c0,0.2-0.1,0.5-0.2,0.9c-0.1,0.4-0.2,0.7-0.3,1c0.1-0.2,0.3-0.5,0.6-0.8
			c0.2-0.3,0.4-0.6,0.6-0.8l2.7-3.2l1.4,0.7L42.8,102.7z"/>
		<path d="M53.2,105.5l-0.2-1.9l-2.7-0.5l-0.9,1.7l-1.7-0.3l4-6.9l1.9,0.4l1.2,7.9L53.2,105.5z M52.9,102.3
			c-0.2-1.7-0.3-2.6-0.3-2.9s0-0.4,0-0.5c-0.2,0.4-0.7,1.4-1.6,3L52.9,102.3z"/>
		<path d="M60.5,103.1l0.1,2.9L59,106l-0.3-7.5l2.2-0.1c1,0,1.8,0.1,2.3,0.5s0.8,0.9,0.8,1.7c0,0.4-0.1,0.8-0.3,1.2
			c-0.2,0.4-0.6,0.6-1,0.8c1.2,1.6,2,2.7,2.3,3.2l-1.8,0.1l-1.9-2.8L60.5,103.1z M60.4,101.8l0.5,0c0.5,0,0.9-0.1,1.1-0.3
			s0.3-0.4,0.3-0.8c0-0.4-0.1-0.6-0.4-0.7s-0.6-0.2-1.1-0.2l-0.5,0L60.4,101.8z"/>
		<path d="M74,99.8c0.3,1.2,0.2,2.2-0.2,3s-1.4,1.4-2.7,1.8l-2,0.6l-2-7.2l2.3-0.6c1.2-0.3,2.2-0.3,3,0.2
			C73.1,97.9,73.7,98.6,74,99.8z M72.4,100.2c-0.4-1.6-1.3-2.1-2.7-1.8l-0.8,0.2l1.3,4.7l0.7-0.2C72.4,102.8,72.9,101.8,72.4,100.2z
			"/>
		<path d="M83.1,99.5l-3.8,2.1L75.7,95l3.8-2.1l0.6,1.1l-2.4,1.3l0.8,1.5l2.2-1.2l0.6,1.1l-2.2,1.2l0.9,1.7l2.4-1.3L83.1,99.5z"/>
		<path d="M89.2,89.9c0.8,0.9,1.2,1.9,1.1,2.8c-0.1,1-0.6,1.9-1.6,2.7L87,96.9L82,91.2l1.8-1.5c0.9-0.8,1.8-1.2,2.8-1.1
			C87.5,88.6,88.4,89,89.2,89.9z M87.9,91c-1.1-1.2-2.1-1.4-3.2-0.4l-0.6,0.6l3.2,3.7l0.5-0.4C89,93.4,89,92.3,87.9,91z"/>
	</g>
</g>
</svg>
